<?xml version="1.0" encoding="UTF-8" standalone="no"?>
<!-- Created with Inkscape (http://www.inkscape.org/) -->

<svg
   xmlns:dc="http://purl.org/dc/elements/1.1/"
   xmlns:cc="http://creativecommons.org/ns#"
   xmlns:rdf="http://www.w3.org/1999/02/22-rdf-syntax-ns#"
   xmlns:svg="http://www.w3.org/2000/svg"
   xmlns="http://www.w3.org/2000/svg"
   xmlns:sodipodi="http://sodipodi.sourceforge.net/DTD/sodipodi-0.dtd"
   xmlns:inkscape="http://www.inkscape.org/namespaces/inkscape"
   width="512"
   height="512"
   viewBox="0 0 135.46666 135.46667"
   version="1.1"
   id="svg8"
   inkscape:version="0.92.4 (5da689c313, 2019-01-14)"
   sodipodi:docname="icon.svg"
   inkscape:export-filename="/Users/vjamiro/dev/sdr/open60/icon.png"
   inkscape:export-xdpi="96"
   inkscape:export-ydpi="96">
  <defs
     id="defs2" />
  <sodipodi:namedview
     id="base"
     pagecolor="#ffffff"
     bordercolor="#666666"
     borderopacity="1.0"
     inkscape:pageopacity="0.0"
     inkscape:pageshadow="2"
     inkscape:zoom="0.35"
     inkscape:cx="96.316946"
     inkscape:cy="445.71429"
     inkscape:document-units="mm"
     inkscape:current-layer="layer1"
     showgrid="false"
     units="px"
     inkscape:window-width="953"
     inkscape:window-height="627"
     inkscape:window-x="95"
     inkscape:window-y="-9"
     inkscape:window-maximized="0"
     inkscape:snap-text-baseline="true" />
  <metadata
     id="metadata5">
    <rdf:RDF>
      <cc:Work
         rdf:about="">
        <dc:format>image/svg+xml</dc:format>
        <dc:type
           rdf:resource="http://purl.org/dc/dcmitype/StillImage" />
        <dc:title />
      </cc:Work>
    </rdf:RDF>
  </metadata>
  <g
     inkscape:label="Layer 1"
     inkscape:groupmode="layer"
     id="layer1"
     transform="translate(0,-161.53332)">
    <rect
       style="fill:#212178;stroke-width:0.23510329"
       id="rect14"
       width="134.55952"
       height="136.82738"
       x="7.0390246e-007"
       y="161.68452"
       ry="24.946428"
       inkscape:export-filename="C:\dev\sdr\open60\icon.png"
       inkscape:export-xdpi="96"
       inkscape:export-ydpi="96" />
    <g
       aria-label="Mini60"
       style="font-style:normal;font-weight:normal;font-size:10.58333302px;line-height:1.25;font-family:sans-serif;letter-spacing:0px;word-spacing:0px;fill:#000000;fill-opacity:1;stroke:none;stroke-width:0.26458332"
       id="text13"
       transform="matrix(1.6854212,0,0,3.0641593,-29.304907,-369.12866)">
      <path
         d="m 40.825561,185.45035 -4.018359,20.07939 h -4.564063 l 2.716113,-13.55576 -4.539257,13.55576 h -3.237012 l 0.731738,-13.2457 -2.654101,13.2457 h -4.564063 l 4.01836,-20.07939 h 6.759277 q -0.06201,1.81074 -0.223242,4.2664 l -0.297657,5.10977 3.063379,-9.37617 z"
         style="font-style:italic;font-variant:normal;font-weight:bold;font-stretch:normal;font-size:25.39999962px;font-family:Impact;-inkscape-font-specification:'Impact Bold Italic';fill:#ffffff;fill-opacity:1;stroke-width:0.26458332"
         id="path4523"
         inkscape:connector-curvature="0" />
      <path
         d="m 47.932104,185.45035 -0.520899,2.61689 H 42.25183 l 0.520899,-2.61689 z m -0.731739,3.62148 -3.286621,16.45791 h -5.159375 l 3.286621,-16.45791 z"
         style="font-style:italic;font-variant:normal;font-weight:bold;font-stretch:normal;font-size:25.39999962px;font-family:Impact;-inkscape-font-specification:'Impact Bold Italic';fill:#ffffff;fill-opacity:1;stroke-width:0.26458332"
         id="path4525"
         inkscape:connector-curvature="0" />
      <path
         d="m 54.083666,189.07183 -0.384473,1.51309 q 0.731739,-0.90538 1.599903,-1.35186 0.880566,-0.45889 1.909961,-0.45889 1.289843,0 1.984375,0.60772 0.706933,0.60771 0.756543,1.53789 0.04961,0.91777 -0.384473,3.07578 l -2.306836,11.53418 h -5.010547 l 2.282031,-11.39775 q 0.334864,-1.69913 0.297657,-2.0712 -0.03721,-0.37207 -0.545703,-0.37207 -0.533301,0 -0.756543,0.43409 -0.223243,0.42168 -0.595313,2.28203 l -2.220019,11.1249 h -5.010547 l 3.286621,-16.45791 z"
         style="font-style:italic;font-variant:normal;font-weight:bold;font-stretch:normal;font-size:25.39999962px;font-family:Impact;-inkscape-font-specification:'Impact Bold Italic';fill:#ffffff;fill-opacity:1;stroke-width:0.26458332"
         id="path4527"
         inkscape:connector-curvature="0" />
      <path
         d="m 68.172729,185.45035 -0.520898,2.61689 h -5.159375 l 0.520898,-2.61689 z m -0.731738,3.62148 -3.286621,16.45791 h -5.159375 l 3.286621,-16.45791 z"
         style="font-style:italic;font-variant:normal;font-weight:bold;font-stretch:normal;font-size:25.39999962px;font-family:Impact;-inkscape-font-specification:'Impact Bold Italic';fill:#ffffff;fill-opacity:1;stroke-width:0.26458332"
         id="path4529"
         inkscape:connector-curvature="0" />
      <path
         d="m 80.922338,190.78335 h -5.010547 q 0.272852,-1.40146 0.310059,-1.76113 0.04961,-0.37207 -0.173633,-0.62012 -0.21084,-0.24804 -0.669726,-0.24804 -0.384473,0 -0.682129,0.23564 -0.285254,0.23565 -0.396875,0.60772 -0.111621,0.37207 -0.347266,1.50068 l -0.632519,3.1998 q 0.545703,-0.80615 1.364257,-1.20302 0.830957,-0.40928 1.922364,-0.40928 1.37666,0 2.282031,0.74414 0.905371,0.74414 0.979785,1.78594 0.07441,1.04179 -0.272852,2.81533 l -0.32246,1.5999 q -0.42168,2.1084 -0.79375,3.13779 -0.359668,1.0294 -1.240235,1.90997 -0.880566,0.86816 -2.195215,1.35185 -1.314648,0.48369 -2.939355,0.48369 -2.021582,0 -3.199805,-0.5581 -1.178222,-0.55811 -1.674316,-1.59991 -0.483691,-1.05419 -0.37207,-2.20761 0.111621,-1.15342 0.768945,-4.47725 l 0.558105,-2.77812 q 0.719336,-3.58428 1.066602,-4.78731 0.347266,-1.21543 1.314648,-2.29443 0.979786,-1.07901 2.393653,-1.61231 1.413867,-0.5457 3.12539,-0.5457 2.108399,0 3.323828,0.68213 1.21543,0.68213 1.550293,1.92236 0.334864,1.24024 -0.03721,3.12539 z m -6.263183,6.26319 q 0.21084,-1.06661 0.04961,-1.46348 -0.148828,-0.39688 -0.682129,-0.39688 -0.520898,0 -0.843359,0.38448 -0.310059,0.37207 -0.533301,1.47588 l -0.731738,3.63388 q -0.260449,1.32705 -0.111621,1.73633 0.148828,0.40928 0.682129,0.40928 0.322461,0 0.731738,-0.31006 0.409277,-0.32246 0.682129,-1.71152 z"
         style="font-style:italic;font-variant:normal;font-weight:bold;font-stretch:normal;font-size:25.39999962px;font-family:Impact;-inkscape-font-specification:'Impact Bold Italic';fill:#ffffff;fill-opacity:1;stroke-width:0.26458332"
         id="path4531"
         inkscape:connector-curvature="0" />
      <path
         d="m 94.155637,192.24683 -1.339453,6.69726 q -0.458887,2.28204 -0.917774,3.32383 -0.446484,1.0418 -1.413867,1.94717 -0.95498,0.90537 -2.145605,1.30225 -1.178223,0.39687 -2.542481,0.39687 -1.79834,0 -2.914551,-0.40928 -1.103808,-0.42167 -1.637109,-1.30224 -0.520898,-0.88057 -0.632519,-1.84795 -0.09922,-0.97979 0.322461,-3.10059 l 1.401464,-7.00732 q 0.558106,-2.76572 1.302246,-4.14238 0.756543,-1.37666 2.344043,-2.20762 1.5875,-0.83096 3.609082,-0.83096 1.649512,0 2.827735,0.58291 1.190625,0.57051 1.674316,1.40147 0.483691,0.83095 0.496094,1.87275 0.0248,1.0418 -0.434082,3.32383 z m -4.675684,-1.68672 q 0.322461,-1.5999 0.248047,-1.99678 -0.07441,-0.40927 -0.644922,-0.40927 -0.558105,0 -0.830957,0.43408 -0.260449,0.42168 -0.570508,1.97197 l -1.95957,9.79785 q -0.347265,1.74873 -0.248047,2.1084 0.09922,0.35967 0.657324,0.35967 0.558106,0 0.806153,-0.42168 0.260449,-0.42168 0.558105,-1.89756 z"
         style="font-style:italic;font-variant:normal;font-weight:bold;font-stretch:normal;font-size:25.39999962px;font-family:Impact;-inkscape-font-specification:'Impact Bold Italic';fill:#ffffff;fill-opacity:1;stroke-width:0.26458332"
         id="path4533"
         inkscape:connector-curvature="0" />
    </g>
  </g>
</svg>
