<?xml version="1.0" encoding="UTF-8" standalone="no"?>
<!-- Created with Inkscape (http://www.inkscape.org/) -->

<svg
   xmlns:dc="http://purl.org/dc/elements/1.1/"
   xmlns:cc="http://creativecommons.org/ns#"
   xmlns:rdf="http://www.w3.org/1999/02/22-rdf-syntax-ns#"
   xmlns:svg="http://www.w3.org/2000/svg"
   xmlns="http://www.w3.org/2000/svg"
   xmlns:sodipodi="http://sodipodi.sourceforge.net/DTD/sodipodi-0.dtd"
   xmlns:inkscape="http://www.inkscape.org/namespaces/inkscape"
   width="1240"
   height="1240"
   viewBox="0 0 328.08332 328.08334"
   version="1.1"
   id="svg8"
   inkscape:version="0.92.4 (5da689c313, 2019-01-14)"
   sodipodi:docname="icon.svg"
   inkscape:export-filename="C:\dev\mini60\resources\icon.png"
   inkscape:export-xdpi="96"
   inkscape:export-ydpi="96">
  <defs
     id="defs2" />
  <sodipodi:namedview
     id="base"
     pagecolor="#ffffff"
     bordercolor="#666666"
     borderopacity="1.0"
     inkscape:pageopacity="0.0"
     inkscape:pageshadow="2"
     inkscape:zoom="0.309"
     inkscape:cx="790.23131"
     inkscape:cy="444.77217"
     inkscape:document-units="mm"
     inkscape:current-layer="layer1"
     showgrid="false"
     units="px"
     inkscape:window-width="1493"
     inkscape:window-height="811"
     inkscape:window-x="-128"
     inkscape:window-y="271"
     inkscape:window-maximized="0"
     inkscape:snap-text-baseline="true" />
  <metadata
     id="metadata5">
    <rdf:RDF>
      <cc:Work
         rdf:about="">
        <dc:format>image/svg+xml</dc:format>
        <dc:type
           rdf:resource="http://purl.org/dc/dcmitype/StillImage" />
        <dc:title></dc:title>
      </cc:Work>
    </rdf:RDF>
  </metadata>
  <g
     inkscape:label="Layer 1"
     inkscape:groupmode="layer"
     id="layer1"
     transform="translate(0,31.083347)">
    <rect
       style="fill:#212178;stroke-width:0.56885797"
       id="rect14"
       width="328.17609"
       height="328.45111"
       x="7.0390246e-07"
       y="-29.939192"
       ry="59.883347"
       inkscape:export-filename="C:\dev\sdr\open60\icon.png"
       inkscape:export-xdpi="96"
       inkscape:export-ydpi="96" />
    <g
       aria-label="Mini 60"
       transform="matrix(0.60684485,0,0,1.4117151,5.4644177,0)"
       style="font-style:normal;font-weight:normal;font-size:129.31123352px;line-height:1.25;font-family:sans-serif;letter-spacing:0px;word-spacing:0px;fill:#ffffff;fill-opacity:1;stroke:none;stroke-width:3.23278069"
       id="text3728">
      <path
         d="m 96.983314,61.224286 q -6.250885,6.945427 -19.320916,24.814118 -13.070032,17.805546 -18.373813,22.919916 -5.303781,5.11436 -8.713355,5.11436 -2.58875,0 -5.05122,-3.85156 -2.46247,-3.9147 -6.377165,-15.721922 -8.081953,-24.056436 -10.165581,-27.71857 -0.757683,2.146768 -1.704787,7.008568 -2.020488,10.22872 -5.366921,24.940399 -6.503446,28.223695 -7.387409,37.379025 -0.126281,1.13653 -2.083628,2.46247 -1.894208,1.32595 -3.0938728,1.32595 -2.273049,0 -4.2303968,-2.27305 -1.8942075,-2.27305 -1.8942075,-4.41982 0,-5.55634 3.6621346,-19.38406 L 12.375378,93.110112 q 5.05122,-19.573477 6.250885,-28.791954 1.199665,-9.218477 1.199665,-14.522258 0,-5.493202 8.650214,-5.493202 1.831067,0 3.851556,3.220153 2.020488,3.157013 2.65189,5.556342 0.820823,2.39933 1.957348,5.366922 l 8.460793,23.677594 q 4.98808,14.522257 6.124605,16.416465 1.199664,1.831066 1.957348,1.831066 3.220152,-0.694542 22.79363,-27.718569 21.783387,-29.991619 24.877258,-29.991619 2.52561,0 5.55634,2.020488 3.09388,1.957348 3.09388,3.409573 0,0.631403 -3.66214,27.718571 -1.32594,10.039299 -2.46247,24.119575 -1.13652,14.017131 -1.13652,15.785061 0,3.22015 1.13652,7.19799 1.01024,3.53585 1.01024,5.68262 0,1.70479 -0.6314,4.98808 -0.6314,3.22016 -2.77817,3.78842 -2.083627,0.56826 -3.346432,0.56826 -6.629726,0 -6.629726,-11.04954 0,-10.10244 4.356677,-49.43882 0.315701,-3.157012 0.315701,-3.914695 0,-0.505123 0.757683,-4.230397 0.568263,-3.157013 0.568263,-5.303781 0,-2.083629 -0.315702,-2.778171 z"
         style="font-style:normal;font-variant:normal;font-weight:normal;font-stretch:normal;font-family:'Segoe Print';-inkscape-font-specification:'Segoe Print';fill:#ffffff;fill-opacity:1;stroke-width:3.23278069"
         id="path4535"
         inkscape:connector-curvature="0" />
      <path
         d="m 147.49552,51.121845 q -1.32595,0 -2.02049,-2.841311 -0.25256,-0.883963 -0.69454,-1.957348 -1.70479,-4.104116 -1.70479,-7.134848 0,-2.52561 2.96759,-5.11436 3.03073,-2.651891 6.69287,-2.651891 1.83106,0 4.10411,1.452226 2.27305,1.389086 2.27305,2.715031 0,2.083628 -1.5785,7.071708 -1.51537,4.98808 -4.92494,6.756007 -3.34644,1.704786 -5.11436,1.704786 z m -8.27138,70.527665 q 0,4.79865 1.32595,10.79698 0.25256,1.13652 0.25256,1.89421 0,1.13652 -2.08363,2.90445 -2.08363,1.83106 -4.41982,1.83106 -6.1246,0 -6.1246,-11.23896 0,-11.61781 4.79866,-36.747626 1.64165,-8.776495 1.64165,-10.796983 0,-3.977835 1.45222,-6.756006 1.45223,-2.841312 4.10412,-2.841312 3.22015,0 5.05122,1.578506 1.89421,1.515367 1.89421,3.409574 0,1.894208 -0.88397,4.98808 -4.73552,16.669026 -5.87204,23.867017 -1.13653,7.19799 -1.13653,17.11101 z"
         style="font-style:normal;font-variant:normal;font-weight:normal;font-stretch:normal;font-family:'Segoe Print';-inkscape-font-specification:'Segoe Print';fill:#ffffff;fill-opacity:1;stroke-width:3.23278069"
         id="path4537"
         inkscape:connector-curvature="0" />
      <path
         d="m 207.5419,87.111788 q -3.28329,0 -7.19799,4.293537 -3.85155,4.293538 -11.80722,19.257775 -10.48128,20.0786 -13.57516,22.85677 -3.03073,2.77817 -5.05122,2.77817 -7.45055,0 -7.45055,-7.19798 0,-3.03074 1.01025,-8.58708 3.47271,-19.06835 3.47271,-40.220339 0,-2.399329 2.02049,-5.303781 2.08363,-2.967592 3.9147,-2.967592 3.28329,0 4.67237,2.020489 1.38909,2.020488 1.38909,8.145092 0,6.377165 -3.78842,26.266341 -1.2628,6.56659 -1.2628,8.33452 0,1.01024 0.50512,1.01024 0.9471,0 8.7765,-15.09052 7.89253,-15.343081 13.82771,-21.593965 5.93518,-6.250885 13.07003,-6.250885 5.68263,0 9.21848,5.1775 3.59899,5.177501 5.24064,18.878935 1.76793,15.595645 3.15701,19.447195 1.45223,3.78842 4.5461,3.78842 1.95735,0 4.92494,-1.38909 0.50512,-0.25256 0.75768,-0.25256 2.71503,0 2.71503,3.15701 0,2.77817 -3.72527,5.93519 -3.72528,3.09387 -8.96592,3.09387 -5.36692,0 -8.33451,-4.2304 -2.90445,-4.29353 -4.60924,-22.79363 -1.76792,-18.563232 -7.45055,-18.563232 z"
         style="font-style:normal;font-variant:normal;font-weight:normal;font-stretch:normal;font-family:'Segoe Print';-inkscape-font-specification:'Segoe Print';fill:#ffffff;fill-opacity:1;stroke-width:3.23278069"
         id="path4539"
         inkscape:connector-curvature="0" />
      <path
         d="m 270.74528,51.121845 q -1.32595,0 -2.02049,-2.841311 -0.25256,-0.883963 -0.69454,-1.957348 -1.70479,-4.104116 -1.70479,-7.134848 0,-2.52561 2.96759,-5.11436 3.03074,-2.651891 6.69287,-2.651891 1.83107,0 4.10412,1.452226 2.27305,1.389086 2.27305,2.715031 0,2.083628 -1.57851,7.071708 -1.51537,4.98808 -4.92494,6.756007 -3.34643,1.704786 -5.11436,1.704786 z m -8.27137,70.527665 q 0,4.79865 1.32594,10.79698 0.25256,1.13652 0.25256,1.89421 0,1.13652 -2.08362,2.90445 -2.08363,1.83106 -4.41982,1.83106 -6.12461,0 -6.12461,-11.23896 0,-11.61781 4.79866,-36.747626 1.64165,-8.776495 1.64165,-10.796983 0,-3.977835 1.45222,-6.756006 1.45223,-2.841312 4.10412,-2.841312 3.22015,0 5.05122,1.578506 1.89421,1.515367 1.89421,3.409574 0,1.894208 -0.88396,4.98808 -4.73552,16.669026 -5.87205,23.867017 -1.13652,7.19799 -1.13652,17.11101 z"
         style="font-style:normal;font-variant:normal;font-weight:normal;font-stretch:normal;font-family:'Segoe Print';-inkscape-font-specification:'Segoe Print';fill:#ffffff;fill-opacity:1;stroke-width:3.23278069"
         id="path4541"
         inkscape:connector-curvature="0" />
      <path
         d="m 391.46946,61.287426 q -2.20991,0 -3.09387,0.568262 -8.27138,2.336189 -17.74241,14.206557 -1.70479,2.273049 -5.87205,6.314025 -4.5461,4.356677 -6.88229,7.76625 -2.27304,3.346434 -4.35667,9.407898 -2.02049,6.061462 -2.02049,11.302102 0,3.22016 1.32594,5.93519 1.32595,2.71503 8.1451,7.00856 -1.26281,-9.91302 3.47271,-18.56323 4.73552,-8.713354 11.93351,-12.501769 7.19799,-3.851556 22.28851,-3.851556 7.26113,0 13.07003,5.05122 5.87204,4.98808 5.87204,11.996645 0,4.60924 -3.78841,9.66046 -3.78842,5.05122 -12.43863,10.54442 -8.65022,5.49321 -13.76458,7.45055 -5.05122,1.95735 -18.50009,1.95735 -7.00857,0 -12.50177,-2.39933 -5.43006,-2.39933 -10.48128,-8.33451 -4.98808,-5.93519 -4.98808,-10.79698 0,-10.86013 2.90445,-17.489854 2.90445,-6.692867 8.14509,-14.017136 5.30378,-7.387409 10.16558,-11.870367 1.64165,-1.515366 5.30378,-5.493202 6.88229,-7.57683 11.49153,-10.733842 4.67238,-3.157013 8.96592,-3.157013 2.14676,0 4.04097,1.515366 1.89421,1.452226 1.89421,3.662135 0,4.356677 -2.58875,4.861799 z m 17.48985,42.051404 q -7.13485,-5.177498 -16.60589,-5.177498 -22.47793,0 -23.93015,26.518908 2.08363,0.6314 5.61948,0.6314 l 6.18774,-0.25256 q 6.18775,0 17.42671,-7.76625 11.30211,-7.76625 11.30211,-13.954 z"
         style="font-style:normal;font-variant:normal;font-weight:normal;font-stretch:normal;font-family:'Segoe Print';-inkscape-font-specification:'Segoe Print';fill:#ffffff;fill-opacity:1;stroke-width:3.23278069"
         id="path4543"
         inkscape:connector-curvature="0" />
      <path
         d="m 447.97996,137.24515 q -10.10244,0 -15.59564,-6.88229 -5.4932,-6.88229 -5.4932,-17.17415 0,-12.56491 7.70311,-27.718568 7.70311,-15.15366 22.41479,-24.877259 14.77482,-9.723599 26.01378,-9.723599 8.20823,0 17.67927,5.430062 9.47104,5.430062 13.25945,12.186068 3.78842,6.756007 3.78842,17.931832 0,16.732164 -21.84653,33.780034 -21.78338,17.04787 -47.92345,17.04787 z M 492.4307,63.118493 q -1.45223,1.831067 -4.5461,1.831067 -0.44198,0 -2.39933,-1.389085 -2.02049,-1.452226 -3.66213,-1.452226 -7.76625,0 -12.31235,2.46247 -4.5461,2.399329 -12.50177,10.0393 -7.89253,7.63997 -12.88061,16.795306 -4.98808,9.092195 -4.98808,18.500095 0,11.17582 5.24064,14.01713 5.24064,2.84132 11.42838,2.84132 7.82939,0 19.57348,-6.25089 11.74409,-6.25088 21.72025,-16.03762 9.97616,-9.849882 9.97616,-16.037626 0,-3.535854 -1.13653,-8.208233 -1.13652,-4.735519 -2.52561,-6.503446 -1.32594,-1.767927 -5.05122,-5.682622 -3.66213,-3.914696 -5.93518,-4.92494 z"
         style="font-style:normal;font-variant:normal;font-weight:normal;font-stretch:normal;font-family:'Segoe Print';-inkscape-font-specification:'Segoe Print';fill:#ffffff;fill-opacity:1;stroke-width:3.23278069"
         id="path4545"
         inkscape:connector-curvature="0" />
    </g>
  </g>
</svg>
