<?xml version="1.0" encoding="UTF-8" standalone="no"?>
<!-- Created with Inkscape (http://www.inkscape.org/) -->

<svg
   xmlns:dc="http://purl.org/dc/elements/1.1/"
   xmlns:cc="http://creativecommons.org/ns#"
   xmlns:rdf="http://www.w3.org/1999/02/22-rdf-syntax-ns#"
   xmlns:svg="http://www.w3.org/2000/svg"
   xmlns="http://www.w3.org/2000/svg"
   xmlns:sodipodi="http://sodipodi.sourceforge.net/DTD/sodipodi-0.dtd"
   xmlns:inkscape="http://www.inkscape.org/namespaces/inkscape"
   width="1024"
   height="1024"
   viewBox="0 0 270.93332 270.93334"
   version="1.1"
   id="svg8"
   inkscape:version="0.92.2 5c3e80d, 2017-08-06"
   sodipodi:docname="icon.svg"
   inkscape:export-filename="/Users/vjamiro/dev/sdr/mini60/resources/icon.png"
   inkscape:export-xdpi="96"
   inkscape:export-ydpi="96">
  <defs
     id="defs2" />
  <sodipodi:namedview
     id="base"
     pagecolor="#ffffff"
     bordercolor="#666666"
     borderopacity="1.0"
     inkscape:pageopacity="0.0"
     inkscape:pageshadow="2"
     inkscape:zoom="0.35"
     inkscape:cx="-393.68305"
     inkscape:cy="445.71429"
     inkscape:document-units="mm"
     inkscape:current-layer="layer1"
     showgrid="false"
     units="px"
     inkscape:window-width="953"
     inkscape:window-height="627"
     inkscape:window-x="95"
     inkscape:window-y="0"
     inkscape:window-maximized="0"
     inkscape:snap-text-baseline="true" />
  <metadata
     id="metadata5">
    <rdf:RDF>
      <cc:Work
         rdf:about="">
        <dc:format>image/svg+xml</dc:format>
        <dc:type
           rdf:resource="http://purl.org/dc/dcmitype/StillImage" />
        <dc:title></dc:title>
      </cc:Work>
    </rdf:RDF>
  </metadata>
  <g
     inkscape:label="Layer 1"
     inkscape:groupmode="layer"
     id="layer1"
     transform="translate(0,-26.066653)">
    <rect
       style="fill:#212178;stroke-width:0.46958581"
       id="rect14"
       width="269.90005"
       height="272.14285"
       x="7.0390246e-07"
       y="26.369049"
       ry="49.617207"
       inkscape:export-filename="C:\dev\sdr\open60\icon.png"
       inkscape:export-xdpi="96"
       inkscape:export-ydpi="96" />
    <g
       aria-label="Mini60"
       style="font-style:normal;font-weight:normal;font-size:10.58333302px;line-height:1.25;font-family:sans-serif;letter-spacing:0px;word-spacing:0px;fill:#000000;fill-opacity:1;stroke:none;stroke-width:0.26458332"
       id="text13"
       transform="matrix(1.6854212,0,0,3.0641593,31.171283,-487.81318)">
      <path
         d="m 28.872774,193.35644 -7.810415,33.1401 H 12.19127 l 5.279261,-22.37315 -8.8228738,22.37315 H 2.3559324 l 1.4222673,-21.86141 -5.1587306,21.86141 h -8.8710901 l 7.8104167,-33.1401 H 10.696685 q -0.120522,2.98855 -0.433911,7.0415 l -0.5785515,8.43343 5.9542355,-15.47493 z"
         style="font-style:italic;font-variant:normal;font-weight:bold;font-stretch:normal;font-size:25.39999962px;font-family:Impact;-inkscape-font-specification:'Impact Bold Italic';fill:#ffffff;fill-opacity:1;stroke-width:0.47388914"
         id="path4523"
         inkscape:connector-curvature="0" />
      <path
         d="m 42.685638,193.35644 -1.012462,4.31906 H 31.644988 l 1.012463,-4.31906 z m -1.422269,5.97709 -6.388147,27.16301 H 24.847034 l 6.388148,-27.16301 z"
         style="font-style:italic;font-variant:normal;font-weight:bold;font-stretch:normal;font-size:25.39999962px;font-family:Impact;-inkscape-font-specification:'Impact Bold Italic';fill:#ffffff;fill-opacity:1;stroke-width:0.47388914"
         id="path4525"
         inkscape:connector-curvature="0" />
      <path
         d="m 54.642322,199.33353 -0.747293,2.49728 q 1.422268,-1.49429 3.109703,-2.23118 1.71154,-0.75737 3.712358,-0.75737 2.507045,0 3.856995,1.00301 1.374054,1.00299 1.47048,2.53821 0.09643,1.51474 -0.747293,5.07644 l -4.483758,19.03662 h -9.738913 l 4.435544,-18.81145 q 0.65087,-2.80434 0.578551,-3.41842 -0.07232,-0.61409 -1.060673,-0.61409 -1.036569,0 -1.47048,0.71645 -0.433913,0.69596 -1.1571,3.76638 l -4.315012,18.36113 h -9.738914 l 6.388149,-27.16301 z"
         style="font-style:italic;font-variant:normal;font-weight:bold;font-stretch:normal;font-size:25.39999962px;font-family:Impact;-inkscape-font-specification:'Impact Bold Italic';fill:#ffffff;fill-opacity:1;stroke-width:0.47388914"
         id="path4527"
         inkscape:connector-curvature="0" />
      <path
         d="m 82.026988,193.35644 -1.01246,4.31906 H 70.986341 l 1.012461,-4.31906 z m -1.422266,5.97709 -6.388148,27.16301 H 64.188387 l 6.388147,-27.16301 z"
         style="font-style:italic;font-variant:normal;font-weight:bold;font-stretch:normal;font-size:25.39999962px;font-family:Impact;-inkscape-font-specification:'Impact Bold Italic';fill:#ffffff;fill-opacity:1;stroke-width:0.47388914"
         id="path4529"
         inkscape:connector-curvature="0" />
      <path
         d="m 106.80818,202.15831 h -9.738907 q 0.530327,-2.31304 0.602648,-2.90666 0.09648,-0.61408 -0.337484,-1.02348 -0.409806,-0.40938 -1.301737,-0.40938 -0.747289,0 -1.325843,0.38891 -0.554434,0.38894 -0.771397,1.00302 -0.21695,0.61408 -0.674969,2.4768 l -1.229415,5.28112 q 1.060667,-1.33052 2.651674,-1.98553 1.615114,-0.6755 3.736473,-0.6755 2.675777,0 4.435537,1.22817 1.75975,1.22817 1.90439,2.94761 0.14463,1.71942 -0.53034,4.64657 l -0.62675,2.64056 q -0.81962,3.47982 -1.54281,5.17878 -0.69907,1.69898 -2.410611,3.15231 -1.711542,1.43286 -4.266801,2.23117 -2.555259,0.79831 -5.713178,0.79831 -3.929314,0 -6.219406,-0.92112 -2.290089,-0.92114 -3.254338,-2.64058 -0.940141,-1.73989 -0.723185,-3.64355 0.216954,-1.90367 1.494584,-7.3895 l 1.084779,-4.58515 q 1.39816,-5.91569 2.073136,-7.90123 0.674975,-2.00602 2.555259,-3.78685 1.904396,-1.78086 4.652498,-2.66105 2.748115,-0.90065 6.07477,-0.90065 4.098053,0 6.460463,1.12582 2.36241,1.12583 3.01328,3.17277 0.65086,2.04696 -0.0724,5.15831 z m -12.173644,10.3371 q 0.409818,-1.76038 0.09648,-2.41541 -0.289271,-0.65503 -1.325843,-0.65503 -1.012454,0 -1.639221,0.63457 -0.602648,0.61409 -1.036561,2.43587 l -1.42227,5.99756 q -0.506233,2.19022 -0.21695,2.86572 0.28927,0.67551 1.325843,0.67551 0.626755,0 1.422259,-0.51175 0.795503,-0.53221 1.325843,-2.82478 z"
         style="font-style:italic;font-variant:normal;font-weight:bold;font-stretch:normal;font-size:25.39999962px;font-family:Impact;-inkscape-font-specification:'Impact Bold Italic';fill:#ffffff;fill-opacity:1;stroke-width:0.47388914"
         id="path4531"
         inkscape:connector-curvature="0" />
      <path
         d="m 132.52951,204.57372 -2.60346,11.05351 q -0.89193,3.7664 -1.78387,5.48582 -0.86782,1.71945 -2.74811,3.21372 -1.85617,1.49427 -4.17038,2.14931 -2.29009,0.65501 -4.94178,0.65501 -3.49539,0 -5.66495,-0.6755 -2.14545,-0.69595 -3.18203,-2.14929 -1.01245,-1.45333 -1.22941,-3.04995 -0.19286,-1.6171 0.62677,-5.11738 l 2.72399,-11.56525 q 1.08479,-4.56469 2.53115,-6.83681 1.47049,-2.27211 4.55609,-3.64358 3.08558,-1.37145 7.0149,-1.37145 3.20614,0 5.49622,0.96206 2.3142,0.94161 3.25435,2.31307 0.94013,1.37144 0.96423,3.09088 0.0482,1.71944 -0.84371,5.48583 z m -9.08804,-2.78386 q 0.62675,-2.64055 0.48213,-3.29559 -0.14463,-0.67548 -1.25354,-0.67548 -1.08477,0 -1.61511,0.71642 -0.50624,0.69598 -1.10888,3.25465 l -3.80879,16.17089 q -0.67498,2.8862 -0.48212,3.47982 0.19285,0.59363 1.27763,0.59363 1.08477,0 1.5669,-0.69598 0.50623,-0.69596 1.08478,-3.13182 z"
         style="font-style:italic;font-variant:normal;font-weight:bold;font-stretch:normal;font-size:25.39999962px;font-family:Impact;-inkscape-font-specification:'Impact Bold Italic';fill:#ffffff;fill-opacity:1;stroke-width:0.47388914"
         id="path4533"
         inkscape:connector-curvature="0" />
    </g>
  </g>
</svg>
